# xmcd
#
# Track frame offsets:
#	150
#	14528
#	29508
#	44658
#	59391
#
# Disc length: 994 seconds
#
# Revision: 0
# Processed by: cddbd v1.5.2PL0 Copyright (c) Steve Scherf et al.
# Submitted via: audiograbber 1.83.01
#
DISCID=4203e005
DTITLE=Franceska - Non esiste and la 1/2 stagione
DYEAR=2012
DGENRE=Pop
TTITLE0=Subliminale
TTITLE1=La neve sulla pelle
TTITLE2=E come estate
TTITLE3=Amoureux solitaires
TTITLE4=La neve sulla pelle (Acoustic version)
EXTD=Cd pubblicato da Merendine Musica
EXTT0=
EXTT1=
EXTT2=
EXTT3=
EXTT4=
PLAYORDER=
